<mxfile host="Electron" modified="2023-06-19T19:14:57.553Z" agent="Mozilla/5.0 (Windows NT 10.0; Win64; x64) AppleWebKit/537.36 (KHTML, like Gecko) draw.io/21.5.0 Chrome/112.0.5615.204 Electron/24.5.1 Safari/537.36" etag="WtgWaMN99HqVFchPJsxz" version="21.5.0" type="device">
  <diagram name="PÃ¡gina-1" id="9vkypHTaUHpcmie1Fl5z">
    <mxGraphModel dx="1036" dy="606" grid="1" gridSize="10" guides="1" tooltips="1" connect="1" arrows="1" fold="1" page="1" pageScale="1" pageWidth="827" pageHeight="1169" math="0" shadow="0">
      <root>
        <mxCell id="0" />
        <mxCell id="1" parent="0" />
        <mxCell id="Ye1B2BcNmuzfpKd_-6BQ-1" value="Tank" style="swimlane;fontStyle=1;align=center;verticalAlign=top;childLayout=stackLayout;horizontal=1;startSize=26;horizontalStack=0;resizeParent=1;resizeParentMax=0;resizeLast=0;collapsible=1;marginBottom=0;whiteSpace=wrap;html=1;" parent="1" vertex="1">
          <mxGeometry x="150" y="80" width="160" height="226" as="geometry" />
        </mxCell>
        <mxCell id="Ye1B2BcNmuzfpKd_-6BQ-2" value="- tankState: TankState&lt;br&gt;- velocidadOrig: double&lt;br&gt;- alcanceOrig: double&lt;br&gt;- danioOrig: double&lt;br&gt;- posicionX: double&lt;br&gt;- posicionY: double&lt;br&gt;- posicionAtaqX: double&lt;br&gt;- posicionAtaqY: double" style="text;strokeColor=none;fillColor=none;align=left;verticalAlign=top;spacingLeft=4;spacingRight=4;overflow=hidden;rotatable=0;points=[[0,0.5],[1,0.5]];portConstraint=eastwest;whiteSpace=wrap;html=1;" parent="Ye1B2BcNmuzfpKd_-6BQ-1" vertex="1">
          <mxGeometry y="26" width="160" height="124" as="geometry" />
        </mxCell>
        <mxCell id="Ye1B2BcNmuzfpKd_-6BQ-3" value="" style="line;strokeWidth=1;fillColor=none;align=left;verticalAlign=middle;spacingTop=-1;spacingLeft=3;spacingRight=3;rotatable=0;labelPosition=right;points=[];portConstraint=eastwest;strokeColor=inherit;" parent="Ye1B2BcNmuzfpKd_-6BQ-1" vertex="1">
          <mxGeometry y="150" width="160" height="8" as="geometry" />
        </mxCell>
        <mxCell id="Ye1B2BcNmuzfpKd_-6BQ-4" value="+ Tank(modo inicial)&lt;br&gt;+ cambiarModo(Modo)&lt;br&gt;+ moverse()&lt;br&gt;+ atacar()" style="text;strokeColor=none;fillColor=none;align=left;verticalAlign=top;spacingLeft=4;spacingRight=4;overflow=hidden;rotatable=0;points=[[0,0.5],[1,0.5]];portConstraint=eastwest;whiteSpace=wrap;html=1;" parent="Ye1B2BcNmuzfpKd_-6BQ-1" vertex="1">
          <mxGeometry y="158" width="160" height="68" as="geometry" />
        </mxCell>
        <mxCell id="Ye1B2BcNmuzfpKd_-6BQ-5" value="&amp;lt;&amp;lt;Interface&amp;gt;&amp;gt;&lt;br&gt;TankState" style="swimlane;fontStyle=0;childLayout=stackLayout;horizontal=1;startSize=26;fillColor=none;horizontalStack=0;resizeParent=1;resizeParentMax=0;resizeLast=0;collapsible=1;marginBottom=0;whiteSpace=wrap;html=1;" parent="1" vertex="1">
          <mxGeometry x="530" y="110" width="140" height="78" as="geometry" />
        </mxCell>
        <mxCell id="Ye1B2BcNmuzfpKd_-6BQ-6" value="+ moverse()" style="text;strokeColor=none;fillColor=none;align=left;verticalAlign=top;spacingLeft=4;spacingRight=4;overflow=hidden;rotatable=0;points=[[0,0.5],[1,0.5]];portConstraint=eastwest;whiteSpace=wrap;html=1;" parent="Ye1B2BcNmuzfpKd_-6BQ-5" vertex="1">
          <mxGeometry y="26" width="140" height="26" as="geometry" />
        </mxCell>
        <mxCell id="Ye1B2BcNmuzfpKd_-6BQ-7" value="+atacar()" style="text;strokeColor=none;fillColor=none;align=left;verticalAlign=top;spacingLeft=4;spacingRight=4;overflow=hidden;rotatable=0;points=[[0,0.5],[1,0.5]];portConstraint=eastwest;whiteSpace=wrap;html=1;" parent="Ye1B2BcNmuzfpKd_-6BQ-5" vertex="1">
          <mxGeometry y="52" width="140" height="26" as="geometry" />
        </mxCell>
        <mxCell id="Ye1B2BcNmuzfpKd_-6BQ-9" value="TankModeTankState" style="swimlane;fontStyle=1;align=center;verticalAlign=top;childLayout=stackLayout;horizontal=1;startSize=26;horizontalStack=0;resizeParent=1;resizeParentMax=0;resizeLast=0;collapsible=1;marginBottom=0;whiteSpace=wrap;html=1;" parent="1" vertex="1">
          <mxGeometry x="420" y="320" width="160" height="110" as="geometry" />
        </mxCell>
        <mxCell id="Ye1B2BcNmuzfpKd_-6BQ-10" value="- tank: Tank" style="text;strokeColor=none;fillColor=none;align=left;verticalAlign=top;spacingLeft=4;spacingRight=4;overflow=hidden;rotatable=0;points=[[0,0.5],[1,0.5]];portConstraint=eastwest;whiteSpace=wrap;html=1;" parent="Ye1B2BcNmuzfpKd_-6BQ-9" vertex="1">
          <mxGeometry y="26" width="160" height="24" as="geometry" />
        </mxCell>
        <mxCell id="Ye1B2BcNmuzfpKd_-6BQ-11" value="" style="line;strokeWidth=1;fillColor=none;align=left;verticalAlign=middle;spacingTop=-1;spacingLeft=3;spacingRight=3;rotatable=0;labelPosition=right;points=[];portConstraint=eastwest;strokeColor=inherit;" parent="Ye1B2BcNmuzfpKd_-6BQ-9" vertex="1">
          <mxGeometry y="50" width="160" height="8" as="geometry" />
        </mxCell>
        <mxCell id="Ye1B2BcNmuzfpKd_-6BQ-12" value="+ setTank(Tank)&lt;br&gt;+ moverse()&lt;br&gt;+ atacar()" style="text;strokeColor=none;fillColor=none;align=left;verticalAlign=top;spacingLeft=4;spacingRight=4;overflow=hidden;rotatable=0;points=[[0,0.5],[1,0.5]];portConstraint=eastwest;whiteSpace=wrap;html=1;" parent="Ye1B2BcNmuzfpKd_-6BQ-9" vertex="1">
          <mxGeometry y="58" width="160" height="52" as="geometry" />
        </mxCell>
        <mxCell id="Ye1B2BcNmuzfpKd_-6BQ-13" value="TankModeSiegeState" style="swimlane;fontStyle=1;align=center;verticalAlign=top;childLayout=stackLayout;horizontal=1;startSize=26;horizontalStack=0;resizeParent=1;resizeParentMax=0;resizeLast=0;collapsible=1;marginBottom=0;whiteSpace=wrap;html=1;" parent="1" vertex="1">
          <mxGeometry x="620" y="320" width="160" height="110" as="geometry" />
        </mxCell>
        <mxCell id="Ye1B2BcNmuzfpKd_-6BQ-14" value="- tank: Tank" style="text;strokeColor=none;fillColor=none;align=left;verticalAlign=top;spacingLeft=4;spacingRight=4;overflow=hidden;rotatable=0;points=[[0,0.5],[1,0.5]];portConstraint=eastwest;whiteSpace=wrap;html=1;" parent="Ye1B2BcNmuzfpKd_-6BQ-13" vertex="1">
          <mxGeometry y="26" width="160" height="24" as="geometry" />
        </mxCell>
        <mxCell id="Ye1B2BcNmuzfpKd_-6BQ-15" value="" style="line;strokeWidth=1;fillColor=none;align=left;verticalAlign=middle;spacingTop=-1;spacingLeft=3;spacingRight=3;rotatable=0;labelPosition=right;points=[];portConstraint=eastwest;strokeColor=inherit;" parent="Ye1B2BcNmuzfpKd_-6BQ-13" vertex="1">
          <mxGeometry y="50" width="160" height="8" as="geometry" />
        </mxCell>
        <mxCell id="Ye1B2BcNmuzfpKd_-6BQ-16" value="+ setTank(Tank)&lt;br&gt;+ moverse()&lt;br&gt;+ atacar()" style="text;strokeColor=none;fillColor=none;align=left;verticalAlign=top;spacingLeft=4;spacingRight=4;overflow=hidden;rotatable=0;points=[[0,0.5],[1,0.5]];portConstraint=eastwest;whiteSpace=wrap;html=1;" parent="Ye1B2BcNmuzfpKd_-6BQ-13" vertex="1">
          <mxGeometry y="58" width="160" height="52" as="geometry" />
        </mxCell>
        <mxCell id="Ye1B2BcNmuzfpKd_-6BQ-18" value="Usuario" style="swimlane;fontStyle=1;align=center;verticalAlign=top;childLayout=stackLayout;horizontal=1;startSize=26;horizontalStack=0;resizeParent=1;resizeParentMax=0;resizeLast=0;collapsible=1;marginBottom=0;whiteSpace=wrap;html=1;" parent="1" vertex="1">
          <mxGeometry x="115" y="370" width="265" height="120" as="geometry" />
        </mxCell>
        <mxCell id="Ye1B2BcNmuzfpKd_-6BQ-19" value="- tanques: List&amp;lt;Tank&amp;gt;" style="text;strokeColor=none;fillColor=none;align=left;verticalAlign=top;spacingLeft=4;spacingRight=4;overflow=hidden;rotatable=0;points=[[0,0.5],[1,0.5]];portConstraint=eastwest;whiteSpace=wrap;html=1;" parent="Ye1B2BcNmuzfpKd_-6BQ-18" vertex="1">
          <mxGeometry y="26" width="265" height="26" as="geometry" />
        </mxCell>
        <mxCell id="Ye1B2BcNmuzfpKd_-6BQ-20" value="" style="line;strokeWidth=1;fillColor=none;align=left;verticalAlign=middle;spacingTop=-1;spacingLeft=3;spacingRight=3;rotatable=0;labelPosition=right;points=[];portConstraint=eastwest;strokeColor=inherit;" parent="Ye1B2BcNmuzfpKd_-6BQ-18" vertex="1">
          <mxGeometry y="52" width="265" height="8" as="geometry" />
        </mxCell>
        <mxCell id="Ye1B2BcNmuzfpKd_-6BQ-21" value="+ atacarConTanques(tanques)&lt;br&gt;+ crearTanque(Tank, TankModeConcreteState)&lt;br&gt;" style="text;strokeColor=none;fillColor=none;align=left;verticalAlign=top;spacingLeft=4;spacingRight=4;overflow=hidden;rotatable=0;points=[[0,0.5],[1,0.5]];portConstraint=eastwest;whiteSpace=wrap;html=1;" parent="Ye1B2BcNmuzfpKd_-6BQ-18" vertex="1">
          <mxGeometry y="60" width="265" height="60" as="geometry" />
        </mxCell>
        <mxCell id="Ye1B2BcNmuzfpKd_-6BQ-22" value="" style="endArrow=open;endSize=12;dashed=1;html=1;rounded=0;exitX=0.349;exitY=-0.008;exitDx=0;exitDy=0;exitPerimeter=0;" parent="1" source="Ye1B2BcNmuzfpKd_-6BQ-18" edge="1">
          <mxGeometry width="160" relative="1" as="geometry">
            <mxPoint x="170" y="320" as="sourcePoint" />
            <mxPoint x="208" y="290" as="targetPoint" />
          </mxGeometry>
        </mxCell>
        <mxCell id="Ye1B2BcNmuzfpKd_-6BQ-23" value="&amp;nbsp;initialState= new ConcreteModeTankState()&lt;br style=&quot;text-align: left;&quot;&gt;&lt;span style=&quot;text-align: left;&quot;&gt;&amp;nbsp;tank = new Tank(initialState)&lt;br&gt;tanques.add(tank)&lt;br&gt;&lt;/span&gt;" style="shape=note;size=20;whiteSpace=wrap;html=1;" parent="1" vertex="1">
          <mxGeometry x="80" y="510" width="270" height="100" as="geometry" />
        </mxCell>
        <mxCell id="Ye1B2BcNmuzfpKd_-6BQ-24" value="" style="endArrow=none;html=1;rounded=0;dashed=1;dashPattern=1 2;exitX=0.063;exitY=-0.012;exitDx=0;exitDy=0;exitPerimeter=0;entryX=0;entryY=0.5;entryDx=0;entryDy=0;" parent="1" source="Ye1B2BcNmuzfpKd_-6BQ-23" target="Ye1B2BcNmuzfpKd_-6BQ-21" edge="1">
          <mxGeometry relative="1" as="geometry">
            <mxPoint x="130" y="500" as="sourcePoint" />
            <mxPoint x="97" y="460" as="targetPoint" />
            <Array as="points">
              <mxPoint x="97" y="460" />
            </Array>
          </mxGeometry>
        </mxCell>
        <mxCell id="Ye1B2BcNmuzfpKd_-6BQ-25" value="" style="resizable=0;html=1;whiteSpace=wrap;align=right;verticalAlign=bottom;" parent="Ye1B2BcNmuzfpKd_-6BQ-24" connectable="0" vertex="1">
          <mxGeometry x="1" relative="1" as="geometry" />
        </mxCell>
        <mxCell id="Ye1B2BcNmuzfpKd_-6BQ-26" value="" style="endArrow=block;dashed=1;endFill=0;endSize=12;html=1;rounded=0;entryX=0.53;entryY=1.046;entryDx=0;entryDy=0;entryPerimeter=0;" parent="1" target="Ye1B2BcNmuzfpKd_-6BQ-7" edge="1">
          <mxGeometry width="160" relative="1" as="geometry">
            <mxPoint x="604" y="270" as="sourcePoint" />
            <mxPoint x="620" y="200" as="targetPoint" />
          </mxGeometry>
        </mxCell>
        <mxCell id="Ye1B2BcNmuzfpKd_-6BQ-27" value="" style="endArrow=none;dashed=1;html=1;dashPattern=1 3;strokeWidth=2;rounded=0;entryX=0.5;entryY=0;entryDx=0;entryDy=0;exitX=0.566;exitY=-0.022;exitDx=0;exitDy=0;exitPerimeter=0;" parent="1" source="Ye1B2BcNmuzfpKd_-6BQ-9" target="Ye1B2BcNmuzfpKd_-6BQ-13" edge="1">
          <mxGeometry width="50" height="50" relative="1" as="geometry">
            <mxPoint x="460" y="270" as="sourcePoint" />
            <mxPoint x="743" y="270" as="targetPoint" />
            <Array as="points">
              <mxPoint x="510" y="270" />
              <mxPoint x="700" y="270" />
            </Array>
          </mxGeometry>
        </mxCell>
        <mxCell id="Ye1B2BcNmuzfpKd_-6BQ-28" value="" style="endArrow=classic;html=1;rounded=0;entryX=1.014;entryY=0.394;entryDx=0;entryDy=0;entryPerimeter=0;" parent="1" target="Ye1B2BcNmuzfpKd_-6BQ-4" edge="1">
          <mxGeometry width="50" height="50" relative="1" as="geometry">
            <mxPoint x="434" y="320" as="sourcePoint" />
            <mxPoint x="484" y="270" as="targetPoint" />
          </mxGeometry>
        </mxCell>
        <mxCell id="Ye1B2BcNmuzfpKd_-6BQ-29" value="" style="endArrow=classic;html=1;rounded=0;entryX=1.004;entryY=0.147;entryDx=0;entryDy=0;entryPerimeter=0;" parent="1" target="Ye1B2BcNmuzfpKd_-6BQ-4" edge="1">
          <mxGeometry width="50" height="50" relative="1" as="geometry">
            <mxPoint x="652" y="320" as="sourcePoint" />
            <mxPoint x="530" y="245" as="targetPoint" />
          </mxGeometry>
        </mxCell>
        <mxCell id="Ye1B2BcNmuzfpKd_-6BQ-30" value="" style="endArrow=diamondThin;endFill=1;endSize=24;html=1;rounded=0;exitX=0;exitY=0.5;exitDx=0;exitDy=0;" parent="1" source="Ye1B2BcNmuzfpKd_-6BQ-6" edge="1">
          <mxGeometry width="160" relative="1" as="geometry">
            <mxPoint x="320" y="150" as="sourcePoint" />
            <mxPoint x="310" y="149" as="targetPoint" />
          </mxGeometry>
        </mxCell>
        <mxCell id="Ye1B2BcNmuzfpKd_-6BQ-31" value="1" style="text;html=1;align=center;verticalAlign=middle;resizable=0;points=[];autosize=1;strokeColor=none;fillColor=none;" parent="1" vertex="1">
          <mxGeometry x="310" y="158" width="30" height="30" as="geometry" />
        </mxCell>
        <mxCell id="Ye1B2BcNmuzfpKd_-6BQ-32" value="0" style="text;html=1;align=center;verticalAlign=middle;resizable=0;points=[];autosize=1;strokeColor=none;fillColor=none;" parent="1" vertex="1">
          <mxGeometry x="500" y="158" width="30" height="30" as="geometry" />
        </mxCell>
        <mxCell id="Ye1B2BcNmuzfpKd_-6BQ-33" value="" style="endArrow=open;endSize=12;dashed=1;html=1;rounded=0;entryX=0.201;entryY=1.069;entryDx=0;entryDy=0;entryPerimeter=0;" parent="1" target="Ye1B2BcNmuzfpKd_-6BQ-16" edge="1">
          <mxGeometry width="160" relative="1" as="geometry">
            <mxPoint x="380" y="480" as="sourcePoint" />
            <mxPoint x="714.7999877929688" y="480" as="targetPoint" />
            <Array as="points">
              <mxPoint x="652" y="480" />
            </Array>
          </mxGeometry>
        </mxCell>
        <mxCell id="Ye1B2BcNmuzfpKd_-6BQ-34" value="" style="endArrow=open;endSize=12;dashed=1;html=1;rounded=0;entryX=0.551;entryY=1.023;entryDx=0;entryDy=0;entryPerimeter=0;" parent="1" target="Ye1B2BcNmuzfpKd_-6BQ-12" edge="1">
          <mxGeometry width="160" relative="1" as="geometry">
            <mxPoint x="379" y="456" as="sourcePoint" />
            <mxPoint x="651" y="410" as="targetPoint" />
            <Array as="points">
              <mxPoint x="510" y="456" />
            </Array>
          </mxGeometry>
        </mxCell>
      </root>
    </mxGraphModel>
  </diagram>
</mxfile>
